<svg xmlns="http://www.w3.org/2000/svg" width="25" height="28" viewBox="0 0 25 28"><defs><clipPath id="a4waa"><path fill="#fff" d="M23.79 15.845c0 6.071-4.922 10.993-10.995 10.993-6.072 0-10.995-4.922-10.995-10.993 0-4.214 2.373-7.87 5.854-9.715l3.714-3.713c.78-.78 2.044-.78 2.824 0L17.877 6.1c3.512 1.835 5.914 5.506 5.914 9.744z"/></clipPath></defs><g><g><path fill="#fff" d="M23.79 15.845c0 6.071-4.922 10.993-10.995 10.993-6.072 0-10.995-4.922-10.995-10.993 0-4.214 2.373-7.87 5.854-9.715l3.714-3.713c.78-.78 2.044-.78 2.824 0L17.877 6.1c3.512 1.835 5.914 5.506 5.914 9.744z"/><path fill="none" stroke="#b0b0b0" stroke-linecap="round" stroke-linejoin="round" stroke-miterlimit="20" stroke-width="2" d="M23.79 15.845c0 6.071-4.922 10.993-10.995 10.993-6.072 0-10.995-4.922-10.995-10.993 0-4.214 2.373-7.87 5.854-9.715l3.714-3.713c.78-.78 2.044-.78 2.824 0L17.877 6.1c3.512 1.835 5.914 5.506 5.914 9.744z" clip-path="url(&quot;#a4waa&quot;)"/></g></g></svg>